<?xml version="1.0" encoding="utf-8"?>
<!-- Generator: Adobe Illustrator 23.0.1, SVG Export Plug-In . SVG Version: 6.00 Build 0)  -->
<svg version="1.1" id="Livello_1" xmlns="http://www.w3.org/2000/svg" xmlns:xlink="http://www.w3.org/1999/xlink" x="0px" y="0px"
	 width="231.981px" height="163.985px" viewBox="0 0 231.981 163.985" enable-background="new 0 0 231.981 163.985"
	 xml:space="preserve">
<g>
	<path fill="#E7AF2A" d="M142.09,66.281c-7.701,13.602-19.103,18.937-34.969,18.937c-13.169,0-24.924-4.901-32.641-12.572
		c8.077,17.483,25.68,29.607,46.104,29.607c17.221,0,32.438-8.618,41.628-21.801L142.09,66.281z"/>
	<path fill="#3270A0" d="M69.775,51.116c0,16.193,16.719,29.319,37.346,29.319c5.727,0.023,11.406-1.031,16.743-3.106
		c-1.086,0.137-2.179,0.205-3.274,0.205c-14.499,0-26.254-11.825-26.254-26.414s11.755-26.414,26.254-26.414
		c4.228,0.001,8.392,1.027,12.137,2.989c3.745,1.962,6.959,4.802,9.367,8.277l20.122-14.176C153.026,8.616,137.809,0,120.59,0
		C92.528,0,69.778,22.884,69.775,51.114V51.116z"/>
	<path fill="#3270A0" d="M49.847,141.507c-1.811,2.612-4.227,4.747-7.042,6.221c-2.815,1.475-5.946,2.246-9.125,2.246
		c-10.902,0-19.738-8.889-19.738-19.864c0-10.976,8.837-19.865,19.738-19.865c3.179,0.001,6.309,0.772,9.125,2.247
		s5.232,3.61,7.042,6.223l11.419-8.042c-3.089-4.458-7.212-8.102-12.016-10.619c-4.804-2.517-10.146-3.833-15.57-3.835
		C15.08,96.22,0,111.391,0,130.103s15.08,33.882,33.681,33.882c5.423-0.002,10.766-1.317,15.57-3.834s8.927-6.16,12.016-10.618
		L49.847,141.507z"/>
	<path fill="#3270A0" d="M110.295,129.586c-2.472-5.894-7.138-10.597-13.012-13.115c-4.495-1.908-9.458-2.424-14.25-1.483
		c-4.791,0.942-9.19,3.299-12.629,6.765c-3.442,3.441-5.788,7.825-6.741,12.598c-0.953,4.773-0.47,9.722,1.387,14.221
		c1.857,4.499,5.006,8.346,9.048,11.057c4.042,2.711,8.797,4.164,13.665,4.174c3.216,0.004,6.4-0.631,9.369-1.868
		c2.969-1.236,5.662-3.05,7.924-5.335c3.441-3.483,5.774-7.906,6.706-12.711c0.932-4.806,0.422-9.78-1.467-14.297V129.586z
		 M79.11,130.507c1.131-1.144,2.479-2.051,3.965-2.667c1.486-0.617,3.08-0.932,4.688-0.926c6.695,0,12.142,5.496,12.142,12.253
		c0.006,1.609-0.305,3.203-0.916,4.692c-0.611,1.488-1.509,2.842-2.644,3.983c-1.131,1.135-2.475,2.035-3.954,2.65
		c-1.48,0.614-3.066,0.931-4.668,0.931c-1.602,0-3.189-0.317-4.668-0.931c-1.48-0.615-2.824-1.515-3.954-2.65
		c-2.282-2.308-3.562-5.422-3.562-8.668c0-3.245,1.28-6.36,3.562-8.667H79.11z"/>
	<path fill="#3270A0" d="M181.079,152.306c-1.434,0.308-2.558,0.528-3.983,0.567c-1.806,0.053-3.098-0.331-3.949-1.172
		c-0.909-0.893-1.339-2.309-1.31-4.329v-23.357h9.094v-10.598h-9.094v-12.609l-11.352,3.84l-0.154,8.81h-6.929v10.563h6.064v23.358
		c0,4.831,1.017,8.688,3.026,11.469c2.008,2.781,5.003,4.464,8.871,4.962c0.646,0.078,1.297,0.115,1.947,0.111
		c3.578,0,7.708-0.914,7.913-0.96l0.271-0.061v-10.673L181.079,152.306z"/>
	<path fill="#3270A0" d="M146.988,140.079c-2.021-2.002-5.064-3.835-10.179-6.132l-1.451-0.655
		c-1.843-0.818-3.299-1.467-4.471-2.014c-1.718-0.804-2.526-1.904-2.218-3.022c0.402-1.458,2.683-2.837,5.676-2.543
		c2.104,0.219,3.567,0.729,5.706,2.958c0.081,0.101,0.406,0.517,0.801,1.05l0.218,0.295l7.957-6.721l-0.105-0.238
		c-2.198-4.945-8.821-8.536-15.747-8.536c-4.285,0-8.514,1.384-11.622,3.794c-1.576,1.201-2.874,2.727-3.807,4.475
		c-0.959,1.831-1.454,3.869-1.441,5.936c-0.018,1.892,0.412,3.762,1.253,5.457c0.786,1.525,1.852,2.889,3.143,4.019
		c1.371,1.233,3.428,2.781,8.269,4.898c1.009,0.437,1.943,0.825,2.838,1.197c3.056,1.257,5.252,2.163,5.981,3.492
		c0.18,0.383,0.266,0.803,0.249,1.225c-0.026,0.339-0.121,0.668-0.279,0.969c-0.159,0.3-0.377,0.565-0.642,0.777
		c-1.048,0.93-3.493,1.83-5.951,1.668c-3.973-0.262-7.98-2.646-9.751-5.8l-0.019-0.033l-0.057-0.074l-0.055-0.076l-0.255-0.371
		l-6.953,8.127l0.101,0.205c1.248,2.528,3.571,4.855,6.548,6.549c3.361,1.884,7.154,2.862,11.007,2.837
		c4.903,0,9.504-1.488,12.953-4.191c1.706-1.31,3.109-2.974,4.111-4.877c1.019-1.973,1.543-4.164,1.528-6.385
		C150.328,144.971,149.265,142.343,146.988,140.079z"/>
	<path fill="#3270A0" d="M221.01,163.559h10.971v-49.944l-10.731,3.41l-0.293,2.142c-1.785-1.454-6.027-4.63-13.789-4.635
		c-3.275,0-7.883,1.36-10.454,2.676c-3.465,1.786-6.459,4.365-8.737,7.528c-2.279,3.162-3.778,6.818-4.375,10.67
		c-0.598,3.851-0.276,7.79,0.938,11.494c1.213,3.704,3.285,7.068,6.046,9.82c2.248,2.252,4.92,4.037,7.861,5.253
		c2.941,1.216,6.093,1.838,9.275,1.83h0.125c2.656-0.013,8.701-1.061,13.097-4.883L221.01,163.559z M219.977,139.167
		c0,0.218,0,0.423-0.015,0.633c0.002,0.027,0.002,0.055,0,0.083c0,0.026,0,0.054,0,0.087c0,0.157-0.018,0.306-0.033,0.454
		c-0.296,3-1.69,5.786-3.914,7.822c-2.316,2.107-5.355,3.241-8.486,3.166c-3.13-0.076-6.111-1.355-8.322-3.572
		c-1.713-1.714-2.88-3.897-3.353-6.273c-0.473-2.376-0.231-4.84,0.695-7.079c0.926-2.239,2.494-4.153,4.507-5.501
		c2.013-1.348,4.381-2.07,6.804-2.073C214.533,126.914,219.977,132.41,219.977,139.167L219.977,139.167z"/>
</g>
</svg>
