<svg height="163.299316" viewBox="0 0 300 80.204758" width="612.372436" xmlns="http://www.w3.org/2000/svg" xmlns:xlink="http://www.w3.org/1999/xlink"><clipPath id="a"><path d="m314 697.732h270.312v72.268h-270.312z"/></clipPath><g clip-path="url(#a)" transform="matrix(1.1098303 0 0 -1.1098303 -348.48716 854.56933)"><path d="m0 0c-1.215-.236-2.633-.371-3.68-.877-.506 0-1.215-.54-1.046-1.249 2.093-2.802 5.266-4.558 8.439-5.604 0 2.802.338 5.435.338 8.237-.574.033-1.857-.102-4.051-.507m14.346-12.625c-2.227 0-4.455.304-6.616.844-.168-.709-.033-1.755-.878-2.093-.404 0-.81-.067-1.215-.067-.236 0-.472 0-.709.067-.877.911-.877 2.33-1.046 3.511-3.207 1.519-8.136 4.928-9.655 8.237-.033.101-.067.438-.067.54 0 1.789 3.106 3.375 4.625 3.848.675.203 4.826 1.485 5.266 1.418.304 2.43.134 5.401 1.417 7.562 1.148-.338 1.857-1.689 1.925-2.836.067-1.384.101-2.802.169-4.187l.337-.201c.574.033 1.182.033 1.756.033 3.004 0 10.599-.979 10.599-5.063 0-1.384-1.417-2.397-2.497-3.039-1.621-.405-1.452.135-2.127.371l-.034.17c0 .742 1.89 1.181 1.789 2.261-2.025 1.452-6.819 1.992-9.25 1.992-.236 0-.405-.068-.573-.236 0-3.14 0-6.313.168-9.452 1.722-.338 3.477-.54 5.199-.54 5.131 0 12.996 2.025 12.996 8.371 0 .912-.134 1.857-.472 2.701-2.734 7.088-10.025 10.87-16.676 13.502-4.085 1.621-8.474 2.532-12.895 2.532-1.081 0-5.638-.135-6.212-.945.439-.27 1.958-.168 1.958-.844 0-.338-.675-.472-.911-.574-1.013.135-2.228-.236-2.802.878.034 1.316.844 2.363 2.093 2.802 2.633.911 5.637 1.249 8.439 1.249 8.338 0 16.305-3.477 22.99-8.27 3.813-2.735 8.472-8.17 8.472-13.132 0-8-8.743-11.41-15.563-11.41" fill="#ff0100" transform="translate(436.52 749.8132)"/><path d="m0 0c-2.633 0-5.199-2.836-6.414-4.929.338-.033.709-.067 1.047-.067l3.139.573c1.485.541 3.376 1.824 3.376 3.579 0 .675-.574.844-1.148.844m-4.321-23.9c-.405-.371-.979-.574-1.553-.574-1.823 0-1.789 2.025-1.789 3.376 0 2.396-.068 8.067.54 10.194.101.372.439.878.878.878 1.012 0 1.283-1.283 1.384-2.093.438-3.106.574-6.448.574-9.587 0-.743 0-1.452-.034-2.194m-4.928 20.794c0-.236.033-.439.202-.608 1.08 1.486 2.397 2.768 3.68 4.052-1.014 0-2.127-.676-2.803-1.419-.471-.438-1.079-1.384-1.079-2.025m6.448 6.347c1.552 0 2.294-.236 3.206-1.519.102.033.202.033.304.033.54 0 .979-.371 1.451-.54.574-.473.845-1.013.81-1.823.641-3.848-3.308-5.705-4.085-5.975-1.417-.506-2.801-1.013-4.252-1.013-.912 0-1.79.169-2.633.372-.27-.304-.541-1.215-1.047-1.215-.608 0-.844.573-1.08 1.046v1.586c-.675.676-1.047 1.655-1.047 2.6 0 1.182.777 2.565 1.587 3.375 2.025 2.026 3.848 3.073 6.786 3.073" fill="#ff0100" transform="translate(476.0152 763.6541)"/><path d="m0 0c-2.97-.405-6.313-.202-9.115-1.417 0-.338.709-.338 1.047-.541 3.342-1.046 8.068.541 10.364-2.97.506-1.418.337-3.511-.372-4.558-1.924-2.126-5.064-2.464-7.865-2.126-2.127.54-4.22 1.587-4.929 3.713-.169.878.169 1.553.709 2.093 1.553 1.215 3.68.945 5.772.709 1.081-.101 2.465-.709 3.005-1.046 0-.54 0-1.283-2.465-1.587-1.586-.203-3.848 1.924-5.603.878-.371-.169-.371-.709-.203-.878 1.249-1.418 3.512-.709 5.098-.709 1.755.337 4.05.709 4.928 1.924-.371 1.587-1.924 1.587-3.004 1.924-2.633.54-5.435.372-8.068.878-.506.203-.877.878-1.046 1.418 0 1.418.54 2.667 1.755 3.342 3.511 1.958 8.945 2.464 12.794.878.371-.372 0-.709 0-1.047-.675-.709-1.721-.743-2.802-.878" fill="#ff0100" transform="translate(484.82539 750.8597)"/><path d="m0 0c-.337-.337-1.012-.473-1.417-.168-2.6 2.126-3.511 5.266-5.266 7.898l-.169-.54-.507-7.358c-.203-.541-.54-1.047-.877-1.047-.71 0-1.25.506-1.587 1.047-.709 1.586-.168 3.678-.168 5.434.336 2.296.674 4.389 1.755 6.313.169.54.674.877 1.215.54 2.633-2.464 4.051-5.604 5.974-8.237.507 0 .17.507.338.675 0 3.714-1.384 6.684-1.924 10.026 0 .338-.168.878.169 1.046 1.047-.168 1.587-1.215 2.127-1.755 2.093-2.971 2.97-6.684 2.633-10.532-.371-1.216-.878-2.802-2.296-3.342" fill="#ff0100" transform="translate(498.8002 740.2939)"/><path d="m0 0h-2.801l-.709-2.093h.169c1.417 0 3.004.169 4.219-.372.371-.337.169-1.046.169-1.552-.675-.709-1.924-.54-2.971-.54-.877-.169-2.498.338-2.801-.878l-.541-2.093v-.203c2.127.203 4.22 1.081 6.313.709.371-.506.709-1.215.54-1.755-2.296-1.755-4.928-3.511-8.067-2.971-1.25.507-2.161 1.925-2.296 3.342-.203 1.925 1.755 3.309.877 5.266-.168.507.54.507.709.675.877 0 .877 1.081 1.215 1.588l.371 1.046c-1.046.371-2.295.54-2.632 1.958 0 .337.709.168.877.337 2.97.337 5.976 1.046 8.946.878 1.046-.541 2.093-1.418 1.924-2.633-.878-.709-2.262-.54-3.511-.709" fill="#ff0100" transform="translate(510.9857 750.6575)"/><path d="m0 0c-1.215-1.081-2.094-2.296-2.971-3.342-.878-1.418-1.755-2.802-2.464-4.051 1.586 0 3.004.675 4.22 1.755 1.417 1.215 2.092 3.005 1.924 4.929-.169.169-.169.878-.709.709m-5.267-11.073-2.092-.169c-1.249-3.882-2.464-7.899-3.174-12.118-1.046-.169-2.329 1.047-2.801 2.093-.406.877 0 1.958 0 2.835.708 3.308 1.384 6.82 2.801 9.824-.168.709-.54 1.215-.709 1.924-.505 3.849 1.419 7.022 3.883 9.823.337.371.877 1.25 1.383 1.046.372-3.138-2.801-5.266-3.139-8.404 0-.541 0-.878.169-1.25 1.047 1.25 2.059 2.836 3.139 4.051 1.553 1.756 3.174 3.173 5.098 4.219.709.169 1.452.034 1.924-.54 1.283-1.552 1.924-3.51 1.418-5.603-.912-3.68-4.389-7.022-7.9-7.731" fill="#ff0100" transform="translate(526.00771 749.44231)"/><path d="m0 0c.785 1.785.799 3.747-.144 5.38-1.737 3.009-6.058 3.766-9.652 1.691s-5.098-6.194-3.361-9.204c1.456-2.522 4.729-3.461 7.866-2.476l.005.006c-.938-1.612-1.476-3.486-1.476-5.485 0-6.03 4.888-10.918 10.918-10.918s10.918 4.888 10.918 10.918c0 2.005-.541 3.881-1.483 5.497l.001-.006c3.149-1.004 6.442-.068 7.904 2.464 1.737 3.01.232 7.129-3.361 9.204s-7.915 1.318-9.652-1.691c-.943-1.633-.929-3.595-.144-5.38v-.001c-1.289.535-2.701.831-4.183.831-1.474 0-2.88-.293-4.163-.822z" fill="#ff0100" transform="translate(362.22211 737.44591)"/><g fill="#022eb8"><path d="m0 0c-3.54 2.232-7.233 3.187-11.048 3.187-3.69 0-11.492-2.032-24.007-9.242-9.774-5.63-20.681-8.392-24.964-8.392-8.817 0-15.085 4.567-17.74 7.648 4.78-2.018 6.479-2.125 8.923-2.125 2.484 0 5.618.938 9.334 2.542 3.77-4.012 10.498-4.728 15.052-2.289 4.402 2.357 6.904 6.838 6.785 11.632 5.982 2.925 11.773 5.643 21.625 5.643 8.037 0 13.424-5.24 16.04-8.604" transform="translate(416.8293 724.7119)"/><path d="m0 0c-6.878-3.005-11.375-4.475-15.003-4.475-2.444 0-4.143.106-8.923 2.125 2.656-3.081 8.923-7.649 17.74-7.649 2.08 0 5.588.715 9.902 2.029-.62 1.669-.799 4.55-.189 7.027-1.076.082-2.584.432-3.527.943" transform="translate(350.461 731.5235)"/><path d="m0 0c1.136.207 3.482.263 4.592.263 8.037 0 13.424-5.241 16.041-8.604-3.541 2.231-7.233 3.186-11.048 3.186-1.477 0-4.086-.589-6.919-1.442.027 2.504-1.158 5.008-2.666 6.597" transform="translate(383.6615 744.31351)"/><path d="m0 0c-3.54 2.232-7.233 3.187-11.048 3.187-3.03 0-8.657-1.246-17.568-5.73-2.528 3.26-7.626 3.973-11.848 1.454-3.792-2.263-5.433-6.417-4.631-9.775-6.106-2.372-12.152-3.583-14.924-3.583-8.817 0-15.085 4.567-17.74 7.648 4.78-2.018 6.479-2.125 8.923-2.125 5.428 0 13.491 3.612 27.194 10.092 7.8 3.689 13.537 7.436 25.602 7.436 8.037 0 13.424-5.24 16.04-8.604" transform="translate(391.7594 747.1259)"/><path d="m487.313 698.436h-3.365v23.613h3.365z"/><path d="m0 0v3.697h4.776v3.018h-4.776v11.458h4.776v3.018h-8.14v-23.712h8.538v2.521z" transform="translate(511.1725 700.85699)"/><path d="m0 0v3.697h4.776v3.018h-4.776v11.458h4.776v3.018h-8.14v-23.712h8.538v2.521z" transform="translate(579.1385 700.85699)"/><path d="m552.156 698.34h-3.365v23.708h3.365z"/><path d="m0 0v27.869h-3.365v-30.747h9.975v2.878z" transform="translate(536.7476 701.2178)"/><path d="m0 0-.473 14.296c2.6-1.517 4.675-3.223 4.675-6.88 0-4.434-2.6-6.3-4.202-7.416m7.136 7.512c0 5.772-5.965 10.006-10.391 10.006 0 0 .034-.049.092-.132v-23.5h3.365l-.165 5.007.028.008 3.367-5.051h3.079s-2.213 3.463-3.319 5.195c.914 1.107 3.944 2.694 3.944 8.467" transform="translate(452.23421 704.5498)"/><path d="m0 0c-6.91-2.054-12.677-8.637-12.677-15.904 0-6.547 5.008-14.003 12.674-15.74v2.862c-3.986 1.737-9.862 5.766-9.862 12.878 0 7.267 6.594 11.438 9.865 12.869z" transform="translate(443.5354 729.8622)"/><path d="m0 0c0-3.803-2.417-5.616-5.642-5.616-3.281 0-5.677 1.945-5.677 5.636v18.281h3.363v-18.963c0-1.284 1.03-2.319 2.314-2.319s2.278 1.041 2.278 2.325v18.957h3.364z" transform="translate(476.4552 703.74651)"/><path d="m0 0c-2.737-1.238-6.538-3.183-6.538-6.936 0-4.932 5.855-7.504 5.855-11.314 0-1.657-2.299-2.884-5.23-4.15.455-.909 1.365-2.501 1.365-2.501 3.482 1.709 6.822 3.265 6.822 6.396 0 5.867-5.799 7.926-5.799 11.483 0 2.844 2.73 3.821 4.661 4.634-.17.455-1.136 2.388-1.136 2.388" transform="translate(499.3497 722.63341)"/><path d="m0 0v-8.757l-8.302 9.637v-24.588h3.365v15.936l4.937-5.524v-10.412h3.365v23.708z" transform="translate(566.66389 722.048)"/></g></g></svg>