<?xml version="1.0" encoding="utf-8"?>
<!-- Generator: Adobe Illustrator 15.0.0, SVG Export Plug-In . SVG Version: 6.00 Build 0)  -->
<!DOCTYPE svg PUBLIC "-//W3C//DTD SVG 1.1//EN" "http://www.w3.org/Graphics/SVG/1.1/DTD/svg11.dtd">
<svg version="1.1" id="Layer_1" xmlns="http://www.w3.org/2000/svg" xmlns:xlink="http://www.w3.org/1999/xlink" x="0px" y="0px"
	 width="284px" height="99px" viewBox="0 0 284 99" enable-background="new 0 0 284 99" xml:space="preserve">
<polygon fill="#243E88" points="138.346,42.711 137.235,47.018 125.064,47.018 125.035,34.717 134.691,34.717 134.707,32.131 
	125.035,32.131 125.035,21.793 136.153,21.793 137.26,26.102 138.739,25.976 138.245,19.207 114.883,19.207 114.883,21.053 
	119.987,21.793 119.987,47.022 114.909,47.757 114.883,47.764 114.883,49.61 114.909,49.602 114.909,49.604 139.328,49.604 
	139.823,42.833 "/>
<g>
	<path fill="#243E88" d="M109.406,28.31h-1.844l-0.247-2.953c-1.723-1.965-5.163-4.979-10.819-4.979
		c-9.408,0-12.301,5.719-12.301,12.667c0,6.27,4.489,15.125,14.021,15.125c5.287,0,8.854-3.567,11.374-6.394l1.415,0.735
		c-1.352,2.031-2.645,4.241-3.751,6.519c-1.352,0.245-6.212,1.352-9.285,1.352c-9.715,0-18.815-3.935-18.815-16.6
		c0-9.715,6.703-15.251,17.4-15.251c4.183,0,8.61,1.169,12.668,1.907L109.406,28.31z"/>
</g>
<path fill="#243E88" d="M154.629,35.934h9.652l-5.042-11.622L154.629,35.934z M155.673,49.646h-12.789v-1.844l4.243-0.737
	l11.438-28.53h3.812l12.359,28.53l4.486,0.737v1.844h-15.555v-1.844l5.287-0.737l-3.44-8.548h-11.933l-3.316,8.548l5.408,0.737
	V49.646z"/>
<polygon fill="#243E88" points="219.314,21.116 213.965,21.856 213.965,49.646 211.876,49.646 189.615,25.052 189.615,47.062 
	194.902,47.802 194.902,49.646 181.808,49.646 181.808,47.802 187.031,47.062 187.031,21.856 181.745,21.116 181.745,19.272 
	191.644,19.272 211.384,41.407 211.384,21.856 206.031,21.116 206.031,19.272 219.314,19.272 "/>
<polygon fill="#243E88" points="227.284,21.854 221.874,21.116 221.874,19.27 237.676,19.27 237.676,21.116 232.328,21.854 
	232.328,47.065 237.676,47.802 237.676,49.646 221.995,49.646 221.995,47.802 227.284,47.065 "/>
<path fill="#243E88" d="M252.405,35.934h9.651l-5.041-11.622L252.405,35.934z M253.446,49.646h-12.788v-1.844l4.24-0.737
	l11.439-28.53h3.812l12.361,28.53L277,47.802v1.844h-15.557v-1.844l5.286-0.737l-3.442-8.548h-11.928l-3.321,8.548l5.408,0.737
	V49.646z"/>
<polygon fill="#243E88" points="219.045,83.771 218.02,87.749 206.778,87.749 206.753,76.389 215.672,76.389 215.686,74 206.753,74 
	206.753,64.452 217.021,64.452 218.042,68.431 219.407,68.315 218.955,62.064 197.376,62.064 197.376,63.769 202.089,64.452 
	202.089,87.754 197.402,88.433 197.402,88.436 197.376,88.439 197.376,90.145 197.402,90.138 219.953,90.138 220.41,83.886 "/>
<g>
	<path fill="#243E88" d="M78.556,70.473h-1.702l-0.227-2.726c-1.591-1.817-4.771-4.602-9.996-4.602
		c-8.687,0-11.356,5.282-11.356,11.7c0,5.791,4.145,13.97,12.948,13.97c4.885,0,8.177-3.295,10.504-5.907l1.307,0.684
		c-1.248,1.873-2.439,3.919-3.463,6.02c-1.25,0.225-5.736,1.248-8.577,1.248c-8.973,0-17.378-3.634-17.378-15.332
		c0-8.975,6.193-14.086,16.074-14.086c3.862,0,7.95,1.079,11.698,1.761L78.556,70.473z"/>
	<path fill="#243E88" d="M94.623,76.152c1.077,0.112,2.157,0.169,3.407,0.169c3.463,0,5.734-1.192,5.734-5.793
		c0-6.076-3.463-6.701-6.187-6.701c-1.25,0-1.988,0.059-2.955,0.171V76.152z M89.966,64.509l-4.891-0.682v-1.705h13.58
		c7.043,0,9.769,1.365,9.769,6.589c0,3.92-2.555,6.304-5.113,7.669l6.361,9.141c0.967,1.422,2.044,2.841,4.604,3.977l-0.628,1.362
		c-4.884-0.682-7.155-1.307-12.382-9.087l-2.667-3.974c-0.852,0.112-2.5,0.227-3.976,0.227v9.767l5.118,0.682v1.704H85.189v-1.704
		l4.776-0.682V64.509z"/>
	<path fill="#243E88" d="M149.5,62.125v1.702l-4.372,0.682V78.48c0,8.459-4.713,12.379-13.062,12.379
		c-8.858,0-13.115-3.236-13.115-10.787V64.509l-4.716-0.682v-1.702h14.082v1.702l-4.711,0.682v14.88c0,4.77,1.533,9.085,8.804,9.085
		c6.133,0,9.085-3.18,9.085-10.221V64.509l-4.771-0.682v-1.702H149.5z"/>
</g>
<polygon fill="#243E88" points="158.479,64.509 153.482,63.827 153.482,62.122 168.077,62.122 168.077,63.827 163.137,64.509 
	163.137,87.792 168.077,88.474 168.077,90.178 153.597,90.178 153.597,88.474 158.479,87.792 "/>
<g>
	<path fill="#243E88" d="M189.883,68.995c-0.397-1.986-1.25-5.85-6.193-5.85c-3.177,0-5.05,2.386-5.05,4.602
		c0,7.666,14.364,5.226,14.364,14.311c0,5.734-4.715,8.802-9.937,8.802c-4.315,0-7.1-1.25-8.689-1.985
		c-0.112-1.253-0.398-4.94-0.682-6.875l1.479-0.227c0.338,2.101,1.017,7.383,7.607,7.383c3.352,0,6.133-1.874,6.133-5.054
		c0-7.268-14.367-4.828-14.367-14.426c0-5.111,4.091-8.232,10.052-8.232c1.362,0,4.372,0.569,6.304,1.134
		c0,3.013,0.171,4.884,0.339,6.306L189.883,68.995z"/>
	<path fill="#243E88" d="M242.661,68.995c-0.397-1.986-1.25-5.85-6.19-5.85c-3.18,0-5.053,2.386-5.053,4.602
		c0,7.666,14.367,5.226,14.367,14.311c0,5.734-4.716,8.802-9.939,8.802c-4.318,0-7.1-1.25-8.688-1.985
		c-0.114-1.253-0.397-4.94-0.682-6.875l1.476-0.227c0.342,2.101,1.023,7.383,7.612,7.383c3.349,0,6.13-1.874,6.13-5.054
		c0-7.268-14.365-4.828-14.365-14.426c0-5.111,4.089-8.232,10.05-8.232c1.365,0,4.374,0.569,6.304,1.134
		c0,3.013,0.171,4.884,0.339,6.306L242.661,68.995z"/>
	<path fill="#243E88" d="M51.254,3.814c-10.387,0-19.18,6.812-22.164,16.209c2.237-0.079,4.549,0.11,6.654,0.643
		c1.59-8.19,6.177-14.437,15.59-14.437c12.137,0,16.256,10.396,16.256,21.955c0,9.018-4.178,19.857-16.256,19.857
		c-9.8,0-14.401-7.129-15.789-14.628c-0.022,0.002-0.042,0.007-0.062,0.009c-2.296,0.302-4.284,0.607-6.342,0.385
		c2.789,9.714,11.5,16.51,22.112,16.51c12.842,0,23.25-10.407,23.25-23.25C74.504,14.226,64.096,3.814,51.254,3.814"/>
	<path fill="#1589CA" d="M23.497,22.857c-6.697,1.914-12.35,1.977-16.164,0.758l-0.061,0.09c3.996,3.879,11.698,4.565,18.436,2.64
		c6.789-1.938,12.426-2.105,16.24-0.841l0.021-0.029C38.006,21.492,30.297,20.914,23.497,22.857"/>
	<path fill="#1589CA" d="M35.137,27.694c-6.701,1.914-12.353,1.977-16.164,0.758l-0.061,0.09c3.996,3.876,11.698,4.562,18.435,2.638
		c6.789-1.941,12.427-2.105,16.238-0.839l0.023-0.031C49.641,26.329,41.937,25.751,35.137,27.694"/>
</g>
</svg>
